#!OML:ASF H:\ManfredObstacles\Project 1\Capture day 2\Session 1\male.ASF
:FULLY-SPECIFIED
:DEGREES
221
root 1.4308 15.4435 1.43171 -162.077 -4.11231 178.894
lowerback -3.61935 0.517021 -4.38978
upperback 0.449259 0.879415 -0.678481
thorax 2.4377 0.373357 1.81188
lowerneck -38.7988 -2.16902 -1.44934
upperneck 37.5445 -5.28291 3.02233
head 22.1585 -1.99775 0.177419
rclavicle -2.28105e-014 9.54166e-015
rhumerus -19.4809 3.06052 -91.0995
rradius 38.4321
rwrist 26.0896
rhand -3.31849 -7.36237
rfingers 7.12502
rthumb 22.4083 -36.0826
lclavicle -2.28105e-014 9.54166e-015
lhumerus -16.5877 -15.7548 94.7264
lradius 41.5036
lwrist -33.394
lhand -4.90363 6.18121
lfingers 7.12502
lthumb 20.886 35.0769
rfemur -21.6841 7.54518 21.2524
rtibia 36.0164
rfoot -23.996 -25.8431
rtoes -9.10823
lfemur -18.7811 -10.8532 -22.7958
ltibia 33.3904
lfoot -7.58355 33.8915
ltoes -1.74128
222
root 1.42292 15.426 1.41219 -161.979 -4.13413 178.868
lowerback -3.46422 0.537902 -4.46175
upperback 0.447562 0.901906 -0.592864
thorax 2.345 0.385976 1.93956
lowerneck -39.1803 -2.17359 -1.46019
upperneck 37.6429 -5.21304 2.91535
head 22.3185 -1.97784 0.141519
rclavicle 3.47873e-016 1.2921e-014
rhumerus -19.6771 3.31247 -90.9246
rradius 38.7335
rwrist 25.7235
rhand -3.41485 -7.50777
rfingers 7.12502
rthumb 22.3158 -36.2391
lclavicle 3.47873e-016 1.2921e-014
lhumerus -16.6356 -16.091 94.8785
lradius 41.6525
lwrist -33.5415
lhand -5.05387 6.05735
lfingers 7.12502
lthumb 20.7417 34.9689
rfemur -21.8966 7.77637 21.1799
rtibia 36.4587
rfoot -24.2369 -26.0777
rtoes -9.25988
lfemur -18.8748 -10.9687 -22.8566
ltibia 33.5834
lfoot -7.86106 34.4488
ltoes -2.40222
223
root 1.41557 15.4089 1.39042 -161.813 -4.15586 178.802
lowerback -3.40267 0.580502 -4.54258
upperback 0.363185 0.955274 -0.596563
thorax 2.21865 0.415229 1.98226
lowerneck -39.0908 -2.19674 -1.37233
upperneck 37.659 -5.27906 2.82531
head 22.2995 -2.0053 0.0584556
rclavicle 3.926e-015 2.70347e-014
rhumerus -20.0112 3.23678 -90.7958
rradius 39.0628
rwrist 25.5434
rhand -3.33952 -7.59329
rfingers 7.12502
rthumb 22.3881 -36.3159
lclavicle 3.926e-015 2.70347e-014
lhumerus -16.9938 -16.4664 94.9872
lradius 41.9205
lwrist -33.6232
lhand -5.04877 6.00362
lfingers 7.12502
lthumb 20.7466 34.9146
rfemur -22.2165 8.0365 21.0525
rtibia 36.9572
rfoot -24.4787 -26.3121
rtoes -9.52135
lfemur -19.0319 -11.0791 -22.9427
ltibia 33.7616
lfoot -8.00574 34.9536
ltoes -3.06076
224
root 1.40861 15.391 1.36375 -161.665 -4.2699 178.687
lowerback -3.39539 0.541443 -4.68011
upperback 0.406279 0.90945 -0.560833
thorax 2.25962 0.38903 2.09396
lowerneck -39.2516 -2.17217 -1.35235
upperneck 37.5816 -5.18985 2.78026
head 22.2794 -1.96706 0.0594443
rclavicle 3.37934e-015 -1.96797e-014
rhumerus -20.1385 3.40969 -90.6213
rradius 39.2628
rwrist 25.3464
rhand -3.52068 -7.53332
rfingers 7.12502
rthumb 22.2142 -36.2768
lclavicle 3.37934e-015 -1.96797e-014
lhumerus -16.9372 -16.828 94.9956
lradius 41.922
lwrist -33.5377
lhand -4.99389 5.89222
lfingers 7.12502
lthumb 20.7993 34.7974
rfemur -22.5179 8.04213 20.9233
rtibia 37.5325
rfoot -24.7879 -26.4439
rtoes -9.85077
lfemur -19.1188 -11.2515 -23.0532
ltibia 33.9128
lfoot -8.28704 35.3312
ltoes -3.32199
225
root 1.40125 15.3738 1.33612 -161.568 -4.3567 178.615
lowerback -3.23214 0.534343 -4.79655
upperback 0.236233 0.888299 -0.509561
thorax 1.99153 0.385596 2.20755
lowerneck -38.9991 -2.32739 -1.72594
upperneck 37.5944 -5.33735 3.04402
head 22.26 -2.04791 0.219945
rclavicle 5.51627e-015 4.57205e-015
rhumerus -20.7523 3.40253 -90.44
rradius 39.5295
rwrist 25.1298
rhand -3.43503 -7.57677
rfingers 7.12502
rthumb 22.2964 -36.3104
lclavicle 5.51627e-015 4.57205e-015
lhumerus -17.5552 -17.2307 95.2105
lradius 42.1641
lwrist -32.8602
lhand -4.94547 6.11328
lfingers 7.12502
lthumb 20.8458 35.0134
rfemur -22.8283 8.12149 20.8361
rtibia 38.1952
rfoot -24.9893 -26.6396
rtoes -10.241
lfemur -19.1456 -11.4068 -23.1288
ltibia 34.0303
lfoot -8.49874 35.7327
ltoes -4.00109
226
root 1.39423 15.355 1.30318 -161.347 -4.46429 178.533
lowerback -3.31129 0.512164 -4.88442
upperback 0.188877 0.864367 -0.488464
thorax 1.98736 0.373282 2.27805
lowerneck -39.4518 -2.28942 -1.58911
upperneck 37.765 -5.28508 2.87086
head 22.4819 -2.02184 0.116374
rclavicle 2.84262e-014 2.78299e-015
rhumerus -21.1563 3.30582 -90.2401
rradius 39.8438
rwrist 25.3507
rhand -3.47164 -7.50933
rfingers 7.12502
rthumb 22.2613 -36.2472
lclavicle 2.84262e-014 2.78299e-015
lhumerus -17.9049 -17.5707 95.2673
lradius 42.3107
lwrist -32.7919
lhand -4.94259 5.96336
lfingers 7.12502
lthumb 20.8486 34.8632
rfemur -23.2795 8.09222 20.7386
rtibia 38.9302
rfoot -25.2358 -26.7463
rtoes -10.699
lfemur -19.2803 -11.3472 -23.196
ltibia 34.1411
lfoot -8.84978 35.9053
ltoes -4.48146
227
root 1.38957 15.336 1.27007 -161.231 -4.51121 178.384
lowerback -3.34914 0.502444 -5.12234
upperback 0.227306 0.863498 -0.472074
thorax 2.04486 0.367883 2.42889
lowerneck -39.4283 -2.25521 -1.44146
upperneck 37.8599 -5.32827 2.79118
head 22.5348 -2.03067 0.0333886
rclavicle 1.04362e-015 1.47101e-014
rhumerus -21.4999 3.23816 -90.0448
rradius 40.2132
rwrist 24.9228
rhand -3.49125 -7.58099
rfingers 7.12502
rthumb 22.2424 -36.3211
lclavicle 1.04362e-015 1.47101e-014
lhumerus -18.1645 -18.3043 95.2459
lradius 42.552
lwrist -31.8393
lhand -4.67334 6.07843
lfingers 7.12502
lthumb 21.1072 34.9496
rfemur -23.6809 8.00164 20.5866
rtibia 39.742
rfoot -25.2089 -26.8499
rtoes -11.6187
lfemur -19.2884 -11.3895 -23.3531
ltibia 34.233
lfoot -9.08096 36.1147
ltoes -4.69674
228
root 1.3831 15.3163 1.23576 -161.144 -4.66029 178.27
lowerback -3.2125 0.405958 -5.22629
upperback 0.163543 0.727379 -0.413117
thorax 1.91121 0.303257 2.53948
lowerneck -39.2767 -2.21374 -1.65378
upperneck 37.9432 -5.26394 3.00814
head 22.5759 -2.01824 0.204017
rclavicle 0 2.34566e-014
rhumerus -21.9896 3.23878 -89.806
rradius 40.4119
rwrist 25.0936
rhand -3.66166 -7.38799
rfingers 7.12502
rthumb 22.0788 -36.1475
lclavicle 0 2.34566e-014
lhumerus -18.5993 -18.68 95.3124
lradius 42.7803
lwrist -30.9956
lhand -4.42154 6.25264
lfingers 7.12502
lthumb 21.3491 35.0966
rfemur -24.0236 7.91451 20.4982
rtibia 40.6132
rfoot -25.2797 -26.9694
rtoes -12.7108
lfemur -19.2535 -11.4532 -23.4551
ltibia 34.3183
lfoot -9.33606 36.2013
ltoes -4.79454
229
root 1.37651 15.2973 1.19466 -161.037 -4.72874 178.157
lowerback -3.20123 0.425996 -5.32193
upperback 0.128161 0.75463 -0.462903
thorax 1.86558 0.317034 2.54258
lowerneck -39.3681 -2.17956 -1.43024
upperneck 37.9259 -5.28742 2.87777
head 22.571 -2.0063 0.0891559
rclavicle -1.34677e-014 2.68359e-015
rhumerus -22.6469 2.76879 -89.6292
rradius 40.8344
rwrist 24.7504
rhand -3.64982 -7.27967
rfingers 7.12502
rthumb 22.0902 -36.0379
lclavicle -1.34677e-014 2.68359e-015
lhumerus -19.2529 -19.5393 95.3162
lradius 43.2668
lwrist -30.2109
lhand -4.01577 6.42727
lfingers 7.12502
lthumb 21.7388 35.2266
rfemur -24.4372 7.75103 20.3822
rtibia 41.5747
rfoot -25.3918 -26.9095
rtoes -13.6137
lfemur -19.1954 -11.4811 -23.5855
ltibia 34.3829
lfoot -9.44143 36.2702
ltoes -4.88768
230
root 1.37132 15.2783 1.15312 -160.995 -4.85703 178.008
lowerback -3.03241 0.364773 -5.4459
upperback 0.0691577 0.663136 -0.476902
thorax 1.7163 0.274588 2.5914
lowerneck -39.7384 -2.08867 -1.2961
upperneck 38.1957 -5.25432 2.81962
head 22.8575 -1.9777 0.0390859
rclavicle 6.70898e-015 4.87022e-015
rhumerus -23.2277 2.28522 -89.4209
rradius 41.091
rwrist 24.8452
rhand -3.60951 -7.00007
rfingers 7.12502
rthumb 22.1289 -35.7537
lclavicle 6.70898e-015 4.87022e-015
lhumerus -19.9002 -20.2277 95.309
lradius 43.7032
lwrist -29.3958
lhand -3.64982 6.5962
lfingers 7.12502
lthumb 22.0902 35.3544
rfemur -24.7887 7.65759 20.2536
rtibia 42.6083
rfoot -25.5613 -26.8539
rtoes -14.2276
lfemur -19.0832 -11.4234 -23.7441
ltibia 34.4506
lfoot -9.89081 36.1727
ltoes -4.81087
